<svg xmlns="http://www.w3.org/2000/svg" version="1.1" xmlns:xlink="http://www.w3.org/1999/xlink" width="512" height="512" x="0" y="0" viewBox="0 0 512.987 512.987" style="enable-background:new 0 0 512 512" xml:space="preserve" class=""><g><path d="m379.946 312.845-5.275 30.747a7.5 7.5 0 0 0 10.881 7.907l27.615-14.517 27.613 14.517a7.493 7.493 0 0 0 7.898-.572 7.495 7.495 0 0 0 2.983-7.335l-5.273-30.748 22.34-21.777a7.5 7.5 0 0 0-4.157-12.792l-30.873-4.487-13.807-27.975a7.501 7.501 0 0 0-13.452 0l-13.809 27.975-30.872 4.487a7.501 7.501 0 0 0-4.157 12.792l22.345 21.778zm18.747-24.78a7.496 7.496 0 0 0 5.646-4.103l8.828-17.885 8.826 17.885a7.5 7.5 0 0 0 5.646 4.103l19.737 2.868-14.282 13.923a7.495 7.495 0 0 0-2.156 6.638l3.371 19.656-17.652-9.28a7.5 7.5 0 0 0-6.98 0l-17.653 9.28 3.372-19.655a7.502 7.502 0 0 0-2.156-6.64l-14.282-13.922 19.735-2.868zM63.946 237.699l-5.275 30.747a7.5 7.5 0 0 0 10.881 7.907l27.615-14.517 27.613 14.517a7.493 7.493 0 0 0 7.898-.572 7.495 7.495 0 0 0 2.983-7.335l-5.273-30.748 22.34-21.777a7.5 7.5 0 0 0-4.157-12.792l-30.873-4.486-13.807-27.976a7.501 7.501 0 0 0-13.452 0L76.63 198.642l-30.872 4.487a7.501 7.501 0 0 0-4.157 12.792l22.345 21.778zm18.747-24.779a7.496 7.496 0 0 0 5.646-4.103l8.828-17.885 8.826 17.885a7.5 7.5 0 0 0 5.646 4.103l19.737 2.868-14.282 13.923a7.495 7.495 0 0 0-2.156 6.638l3.371 19.656-17.652-9.28a7.5 7.5 0 0 0-6.98 0l-17.653 9.28 3.372-19.655a7.5 7.5 0 0 0-2.156-6.639l-14.282-13.923 19.735-2.868zM213.311 49.754v9.117c0 21.407 15.562 39.236 35.964 42.802v21.037c-18.379 2.992-32.949 17.446-36.121 35.764h-10.497c-9.673 0-9.673 15 0 15h107.676c9.673 0 9.673-15 0-15h-10.804c-3.122-18.028-17.285-32.31-35.253-35.609v-21.193c20.402-3.565 35.964-21.395 35.964-42.802v-9.195c9.575-1.288 17.185-5.134 22.673-11.494 11.104-12.871 8.565-31.015 8.452-31.78A7.502 7.502 0 0 0 323.945 0H220.812c-.034 0-.066.005-.1.005s-.066-.005-.1-.005h-31.567a7.5 7.5 0 0 0-7.419 6.401c-.113.766-2.652 18.909 8.452 31.78 5.594 6.486 13.391 10.363 23.233 11.573zm70.883 108.721h-55.706c3.31-12.278 14.543-21.342 27.854-21.342 13.309 0 24.542 9.063 27.852 21.342zm27.36-130.092c-2.646 3.067-6.438 5.101-11.315 6.089V15h16.334c-.353 4.089-1.548 9.359-5.019 13.383zM228.311 15h56.928v26.796c-.033.286-.055.576-.055.872s.021.585.055.872v15.331c0 15.694-12.769 28.463-28.464 28.463s-28.464-12.769-28.464-28.463V15zm-15 0v19.576c-5.115-.936-9.08-2.983-11.823-6.132-3.511-4.028-4.715-9.333-5.07-13.444h16.893z" fill="#8C143C" opacity="1" data-original="#000000" class=""></path><path d="M504.994 497.987h-11.583v-98.272c0-10.633-8.648-19.283-19.278-19.283H345.085c-1.844 0-3.623.276-5.313.762V222.85c0-10.633-8.646-19.283-19.274-19.283H191.451c-10.627 0-19.273 8.65-19.273 19.283v79.721a19.204 19.204 0 0 0-4.276-.495H38.855c-10.63 0-19.278 8.648-19.278 19.279v58.632c0 9.673 15 9.673 15 0v-58.632a4.284 4.284 0 0 1 4.278-4.279h129.046a4.283 4.283 0 0 1 4.276 4.279v176.632h-137.6v-81c0-9.673-15-9.673-15 0v81H7.994c-4.143 0-7.5 3.357-7.5 7.5s3.357 7.5 7.5 7.5h497c4.143 0 7.5-3.357 7.5-7.5s-3.358-7.5-7.5-7.5zm-317.817 0V222.85a4.283 4.283 0 0 1 4.273-4.283h129.048a4.284 4.284 0 0 1 4.274 4.283v275.138H187.177zm153.633 0v-98.272a4.284 4.284 0 0 1 4.275-4.283h129.047a4.286 4.286 0 0 1 4.278 4.283v98.272h-137.6z" fill="#8C143C" opacity="1" data-original="#000000" class=""></path></g></svg>