<svg xmlns="http://www.w3.org/2000/svg" version="1.1" xmlns:xlink="http://www.w3.org/1999/xlink" width="512" height="512" x="0" y="0" viewBox="0 0 90 90" style="enable-background:new 0 0 512 512" xml:space="preserve" class=""><g><path fill-rule="evenodd" d="M8.162 72.092c13.333.006 26.661.006 40 0a9.659 9.659 0 0 0 3.422 6.293H15.12c-3.688 0-6.349-2.793-6.958-6.293zm66.74-60.443c3.688 0 6.354 2.792 6.963 6.292H67.568a7.378 7.378 0 0 1 7.334-6.292zm-49.489 0h43.265c-2.094 1.756-3.463 4.38-3.463 7.313l-.006 51.995a7.39 7.39 0 0 1-7.391 7.428H57.781a7.39 7.39 0 0 1-7.422-7.344c.043-.6-.332-1.23-1.141-1.213H17.99v-50.75a7.384 7.384 0 0 1 7.423-7.429zm0-2.265c-5.35 0-9.693 4.344-9.693 9.693v50.75H6.557c-.781 0-1.125.598-1.125 1.129 0 5.35 4.339 9.693 9.688 9.693h42.662c5.959 0 9.553-5.104 9.693-9.693v-50.75h15.99c.625 0 1.135-.505 1.135-1.129 0-5.35-4.344-9.693-9.697-9.693z" clip-rule="evenodd" fill="#8C143C" opacity="1" data-original="#000000" class=""></path><path d="M75.24 33.753h3.256l.051 40.934-1.598 2.145-1.656-2.193zm-1.244-2.264a1.13 1.13 0 0 0-1.021 1.125l.053 42.408c0 .242.078.482.229.68l2.781 3.699a1.132 1.132 0 0 0 1.818-.006l2.738-3.66c.146-.199.225-.432.219-.678l-.051-42.443c0-.625-.512-1.131-1.137-1.125h-5.52a.332.332 0 0 0-.109 0zM74.318 27.384c-1.51 0-1.396 2.265.119 2.265h4.918c1.566 0 1.566-2.265 0-2.265zM28.557 25.796c-2.521 0-4.593 2.058-4.593 4.578v6.85c0 2.516 2.072 4.567 4.593 4.567h6.689c2.52 0 4.598-2.052 4.598-4.567v-1.855c0-1.514-2.27-1.514-2.27 0v1.855c0 1.292-1.018 2.303-2.328 2.303h-6.689c-1.312 0-2.322-1.011-2.322-2.303v-6.85c0-1.296 1.011-2.307 2.322-2.307h6.262c1.516 0 1.516-2.271 0-2.271z" fill="#8C143C" opacity="1" data-original="#000000" class=""></path><path d="M40.526 26.733a1.134 1.134 0 0 0-.785.338l-7.24 7.214-2.266-2.251a1.133 1.133 0 1 0-1.604 1.601l3.072 3.057a1.133 1.133 0 0 0 1.594 0l8.047-8.016c.731-.724.203-1.964-.818-1.943zM44.459 39.526a1.134 1.134 0 1 0 0 2.265h13.619a1.134 1.134 0 1 0 0-2.265zM48.453 25.796a1.14 1.14 0 0 0-1.141 1.135c0 .631.512 1.136 1.141 1.136h9.625c1.516 0 1.516-2.271 0-2.271zM44.459 34.947a1.134 1.134 0 1 0 0 2.266h13.619a1.134 1.134 0 1 0 0-2.266zM44.459 30.374a1.134 1.134 0 1 0 0 2.266h13.619a1.134 1.134 0 1 0 0-2.266zM44.459 60.588c-1.515 0-1.515 2.271 0 2.271h13.619c1.516 0 1.516-2.271 0-2.271zM48.453 46.854c-1.516 0-1.516 2.275 0 2.275h9.625c1.516 0 1.516-2.275 0-2.275zM44.459 56.01c-.631 0-1.137.512-1.137 1.135 0 .631.506 1.141 1.137 1.141h13.619c1.516 0 1.516-2.275 0-2.275H44.459zM44.459 51.432c-.631 0-1.137.51-1.137 1.141 0 .625.506 1.135 1.137 1.135h13.619c1.516 0 1.516-2.275 0-2.275H44.459zM28.557 46.863c-2.521 0-4.593 2.057-4.593 4.578v6.85c0 2.516 2.072 4.568 4.593 4.568h6.689c2.52 0 4.598-2.053 4.598-4.568v-1.854c0-1.518-2.27-1.518-2.27 0v1.854c0 1.291-1.018 2.301-2.328 2.301h-6.689c-1.312 0-2.322-1.01-2.322-2.301v-6.85c0-1.297 1.011-2.307 2.322-2.307h6.262c1.516 0 1.516-2.271 0-2.271z" fill="#8C143C" opacity="1" data-original="#000000" class=""></path><path d="M40.526 47.803a1.136 1.136 0 0 0-.785.336l-7.24 7.215-2.266-2.25a1.133 1.133 0 1 0-1.604 1.598l3.072 3.059a1.131 1.131 0 0 0 1.594 0l8.047-8.016c.731-.724.203-1.964-.818-1.942z" fill="#8C143C" opacity="1" data-original="#000000" class=""></path></g></svg>