<svg xmlns="http://www.w3.org/2000/svg" version="1.1" xmlns:xlink="http://www.w3.org/1999/xlink" width="512" height="512" x="0" y="0" viewBox="0 0 512 512" style="enable-background:new 0 0 512 512" xml:space="preserve" class=""><g><path fill="#8C143C" d="m484.25 351.453-152.69 101.8a64 64 0 0 1-58.48 6.48L96 391.623v-56l84.94-35.392a32 32 0 0 1 22.427-.82l133.863 44.621a24 24 0 0 1 15.18 30.361l-.41 1.23 113.69-56.841a16 16 0 0 1 21.47 7.151l2.52 5.06a15.991 15.991 0 0 1-5.43 20.46z" opacity="1" data-original="#eec5a5" class=""></path><path fill="#E8EDF1" d="m96 296-72 32v160l120-40z" opacity="1" data-original="#e8edf1" class=""></path><path fill="#3A98E4" d="M96.81 463.73 24 488V328l28.8-12.8z" opacity="1" data-original="#3a98e4" class=""></path><circle cx="256" cy="144" r="120" fill="#E8EDF1" opacity="1" data-original="#e8edf1" class=""></circle><circle cx="256" cy="72" r="16" fill="#3A98E4" opacity="1" data-original="#3a98e4" class=""></circle><path d="M256 272a128 128 0 1 0-128-128 128.145 128.145 0 0 0 128 128zm0-240a112 112 0 1 1-112 112A112.127 112.127 0 0 1 256 32z" fill="#000000" opacity="1" data-original="#000000" class=""></path><path d="M224 216h64a8 8 0 0 0 0-16h-24v-80a8 8 0 0 0-8-8h-24a8 8 0 0 0 0 16h16v72h-24a8 8 0 0 0 0 16zM256 96a24 24 0 1 0-24-24 24.027 24.027 0 0 0 24 24zm0-32a8 8 0 1 1-8 8 8.009 8.009 0 0 1 8-8zM19.322 494.49a8 8 0 0 0 7.208 1.1l120-40a8 8 0 0 0 5.1-10l-8.492-26.89 127.076 48.875A72.094 72.094 0 0 0 336 460.283l152.686-101.792a24.039 24.039 0 0 0 8.153-30.7l-2.528-5.056a24.029 24.029 0 0 0-32.2-10.735l-101.333 50.667a33.732 33.732 0 0 0-3.1-9.5 33.37 33.37 0 0 0-19.423-16.845l-131.788-43.93a41.6 41.6 0 0 0-29.151 1.065L112.158 320.6l-8.529-27.01a8 8 0 0 0-10.878-4.9l-72 32A8 8 0 0 0 16 328v160a8 8 0 0 0 3.322 6.49zm164.145-186.268a25.586 25.586 0 0 1 17.935-.655L333.191 351.5a17.591 17.591 0 0 1 11.126 22.253A17.7 17.7 0 0 1 322.454 385l-80.1-24.646a8 8 0 0 0-4.706 15.292l80.1 24.646a33.017 33.017 0 0 0 9.734 1.466 33.915 33.915 0 0 0 30.846-19.978l110.939-55.469A8.01 8.01 0 0 1 480 329.889l2.528 5.055a8.015 8.015 0 0 1-2.717 10.235L327.123 446.97a56.081 56.081 0 0 1-51.166 5.673l-138.982-53.455L117 335.919zM134 442.9l-31.871 10.624-39.664-133.865 28.6-12.712zM32 333.2l15.72-6.987 39.222 132.373L32 476.9z" fill="#000000" opacity="1" data-original="#000000" class=""></path></g></svg>