<svg xmlns="http://www.w3.org/2000/svg" version="1.1" xmlns:xlink="http://www.w3.org/1999/xlink" width="512" height="512" x="0" y="0" viewBox="0 0 682.667 682.667" style="enable-background:new 0 0 512 512" xml:space="preserve" class=""><g><defs><clipPath id="a" clipPathUnits="userSpaceOnUse"><path d="M0 512h512V0H0Z" fill="#8c143c" opacity="1" data-original="#000000"></path></clipPath><clipPath id="b" clipPathUnits="userSpaceOnUse"><path d="M0 512h512V0H0Z" fill="#8c143c" opacity="1" data-original="#000000"></path></clipPath></defs><g clip-path="url(#a)" transform="matrix(1.33333 0 0 -1.33333 0 682.667)"><path d="m0 0-60.549 60.549c-11.725 11.725-11.725 30.735 0 42.461 11.725 11.724 30.735 11.724 42.46 0L81.609 3.312v-137.77h-126.37v45l-84.63 120.657V181.59c0 16.582 13.442 30.024 30.024 30.024s30.024-13.442 30.024-30.024V81.801" style="stroke-linecap: butt; stroke-linejoin: miter; stroke-miterlimit: 10; stroke-dasharray: none; stroke-opacity: 1;" transform="translate(174.391 149.458)" fill="none" stroke="#8C143C" stroke-width="30px" stroke-linecap="butt" stroke-linejoin="miter" stroke-miterlimit="10" stroke-dasharray="none" stroke-opacity="" data-original="#000000" opacity="1" class=""></path><path d="m0 0 60.549 60.549c11.725 11.725 11.725 30.735 0 42.461-11.725 11.724-30.735 11.724-42.46 0L-81.609 3.312v-137.77h126.37v45l84.63 120.657V181.59c0 16.582-13.442 30.024-30.024 30.024s-30.024-13.442-30.024-30.024V81.801" style="stroke-linecap: butt; stroke-linejoin: miter; stroke-miterlimit: 10; stroke-dasharray: none; stroke-opacity: 1;" transform="translate(337.609 149.458)" fill="none" stroke="#8C143C" stroke-width="30px" stroke-linecap="butt" stroke-linejoin="miter" stroke-miterlimit="10" stroke-dasharray="none" stroke-opacity="" data-original="#000000" opacity="1" class=""></path><path d="M0 0c0 25.156 20.393 45.55 45.55 45.55 25.156 0 45.549-20.394 45.549-45.55S70.706-45.55 45.55-45.55C20.393-45.55 0-25.156 0 0Z" style="stroke-linecap: butt; stroke-linejoin: miter; stroke-miterlimit: 10; stroke-dasharray: none; stroke-opacity: 1;" transform="translate(309.94 451.45)" fill="none" stroke="#8C143C" stroke-width="30px" stroke-linecap="butt" stroke-linejoin="miter" stroke-miterlimit="10" stroke-dasharray="none" stroke-opacity="" data-original="#000000" opacity="1" class=""></path><path d="M0 0c0 25.156-20.393 45.55-45.55 45.55-25.156 0-45.549-20.394-45.549-45.55s20.393-45.55 45.549-45.55C-20.393-45.55 0-25.156 0 0Z" style="stroke-linecap: butt; stroke-linejoin: miter; stroke-miterlimit: 10; stroke-dasharray: none; stroke-opacity: 1;" transform="translate(202.06 451.45)" fill="none" stroke="#8C143C" stroke-width="30px" stroke-linecap="butt" stroke-linejoin="miter" stroke-miterlimit="10" stroke-dasharray="none" stroke-opacity="" data-original="#000000" opacity="1" class=""></path><path d="M0 0c0 25.156-20.394 45.55-45.55 45.55S-91.1 25.156-91.1 0s20.394-45.55 45.55-45.55S0-25.156 0 0Z" style="stroke-linecap: butt; stroke-linejoin: miter; stroke-miterlimit: 10; stroke-dasharray: none; stroke-opacity: 1;" transform="translate(301.55 333.98)" fill="none" stroke="#8C143C" stroke-width="30px" stroke-linecap="butt" stroke-linejoin="miter" stroke-miterlimit="10" stroke-dasharray="none" stroke-opacity="" data-original="#000000" opacity="1" class=""></path><path d="M0 0c14.42 22.892 39.922 38.102 68.976 38.102 32.259 0 60.139-18.751 73.334-45.949" style="stroke-linecap: butt; stroke-linejoin: miter; stroke-miterlimit: 10; stroke-dasharray: none; stroke-opacity: 1;" transform="translate(286.514 367.799)" fill="none" stroke="#8C143C" stroke-width="30px" stroke-linecap="butt" stroke-linejoin="miter" stroke-miterlimit="10" stroke-dasharray="none" stroke-opacity="" data-original="#000000" opacity="1" class=""></path><path d="M0 0c-14.42 22.892-39.922 38.102-68.976 38.102-32.259 0-60.139-18.751-73.334-45.949" style="stroke-linecap: butt; stroke-linejoin: miter; stroke-miterlimit: 10; stroke-dasharray: none; stroke-opacity: 1;" transform="translate(225.486 367.799)" fill="none" stroke="#8C143C" stroke-width="30px" stroke-linecap="butt" stroke-linejoin="miter" stroke-miterlimit="10" stroke-dasharray="none" stroke-opacity="" data-original="#000000" opacity="1" class=""></path><path d="M0 0c-10.19 33.395-41.245 57.688-77.974 57.688-36.729 0-67.783-24.293-77.973-57.688" style="stroke-linecap: butt; stroke-linejoin: miter; stroke-miterlimit: 10; stroke-dasharray: none; stroke-opacity: 1;" transform="translate(333.974 230.743)" fill="none" stroke="#8C143C" stroke-width="30px" stroke-linecap="butt" stroke-linejoin="miter" stroke-miterlimit="10" stroke-dasharray="none" stroke-opacity="" data-original="#000000" opacity="1" class=""></path></g><g clip-path="url(#b)" transform="matrix(1.33333 0 0 -1.33333 0 682.667)"><path d="M0 0c320.115 0 210.471 290.661 210.471 290.661s58.163 105.167 13.926 145.308L88.412 393.88S53.308 403.902 0 403.902c-53.308 0-88.412-10.022-88.412-10.022l-135.985 42.089c-44.237-40.141 13.926-145.308 13.926-145.308S-320.115 0 0 0Z" style="stroke-linecap: butt; stroke-linejoin: miter; stroke-miterlimit: 10; stroke-dasharray: none; stroke-opacity: 1;" transform="translate(-276 38.016)" fill="none" stroke="#8C143C" stroke-width="30px" stroke-linecap="butt" stroke-linejoin="miter" stroke-miterlimit="10" stroke-dasharray="none" stroke-opacity="" data-original="#000000" opacity="1" class=""></path></g></g></svg>