<svg xmlns="http://www.w3.org/2000/svg" version="1.1" xmlns:xlink="http://www.w3.org/1999/xlink" width="512" height="512" x="0" y="0" viewBox="0 0 64 64" style="enable-background:new 0 0 512 512" xml:space="preserve" class=""><g><g data-name="20-manual"><path d="M32 54a.993.993 0 0 1-.581-.187C24.266 48.7 14.975 48 6 48a1 1 0 0 1-1-1V3a1 1 0 0 1 1-1c9.072 0 18.481.712 26 5.783C39.519 2.712 48.928 2 58 2a1 1 0 0 1 1 1v33h-2V4c-8.661.056-17.531.891-24.419 5.81a1 1 0 0 1-1.162 0C24.531 4.894 15.661 4.059 7 4v42c8.761.056 17.757.9 25 5.78a27.824 27.824 0 0 1 4.606-2.5l.788 1.838a25.668 25.668 0 0 0-4.813 2.688A.993.993 0 0 1 32 54Z" fill="#8C143C" opacity="1" data-original="#000000" class=""></path><path d="M26.606 41.919C22.589 40.2 17.763 39.3 10.956 39l.088-2c7.059.311 12.1 1.262 16.35 3.08ZM26.606 36.919C22.589 35.2 17.763 34.3 10.956 34l.088-2c7.059.311 12.1 1.262 16.35 3.08ZM26.606 31.919C22.589 30.2 17.763 29.3 10.956 29l.088-2c7.059.311 12.1 1.262 16.35 3.08ZM26.606 26.919C22.589 25.2 17.763 24.3 10.956 24l.088-2c7.059.311 12.1 1.262 16.35 3.08ZM26.606 21.919C22.589 20.2 17.763 19.3 10.956 19l.088-2c7.059.311 12.1 1.262 16.35 3.08ZM26.606 16.919C22.589 15.2 17.763 14.3 10.956 14l.088-2c7.059.311 12.1 1.262 16.35 3.08ZM37.394 36.919l-.788-1.838c4.249-1.818 9.291-2.769 16.35-3.08l.088 2c-6.807.299-11.633 1.199-15.65 2.918ZM37.394 31.919l-.788-1.838c4.249-1.818 9.291-2.769 16.35-3.08l.088 2c-6.807.299-11.633 1.199-15.65 2.918ZM37.394 26.919l-.788-1.838c4.249-1.818 9.291-2.769 16.35-3.08l.088 2c-6.807.299-11.633 1.199-15.65 2.918ZM37.394 21.919l-.788-1.838c4.249-1.818 9.291-2.769 16.35-3.08l.088 2c-6.807.299-11.633 1.199-15.65 2.918ZM37.394 16.919l-.788-1.838c4.249-1.818 9.291-2.769 16.35-3.08l.088 2c-6.807.299-11.633 1.199-15.65 2.918ZM31 9h2v48h-2z" fill="#8C143C" opacity="1" data-original="#000000" class=""></path><path d="M38 58H5a5.006 5.006 0 0 1-5-5V11a5.006 5.006 0 0 1 5-5h1v2H5a3 3 0 0 0-3 3v42a3 3 0 0 0 3 3h33ZM64 39h-2V11a3 3 0 0 0-3-3h-1V6h1a5.006 5.006 0 0 1 5 5ZM53 62h-4a1 1 0 0 1-1-1v-2.466a9.786 9.786 0 0 1-1.619-.673l-1.745 1.745a1 1 0 0 1-1.414 0l-2.828-2.828a1 1 0 0 1 0-1.414l1.745-1.745A9.786 9.786 0 0 1 41.466 52H39a1 1 0 0 1-1-1v-4a1 1 0 0 1 1-1h2.466a9.786 9.786 0 0 1 .673-1.619l-1.745-1.745a1 1 0 0 1 0-1.414l2.828-2.828a1 1 0 0 1 1.414 0l1.745 1.745A9.858 9.858 0 0 1 48 39.466V37a1 1 0 0 1 1-1h4a1 1 0 0 1 1 1v2.466a9.858 9.858 0 0 1 1.619.673l1.745-1.745a1 1 0 0 1 1.414 0l2.828 2.828a1 1 0 0 1 0 1.414l-1.745 1.745A9.786 9.786 0 0 1 60.534 46H63a1 1 0 0 1 1 1v4a1 1 0 0 1-1 1h-2.466a9.786 9.786 0 0 1-.673 1.619l1.745 1.745a1 1 0 0 1 0 1.414l-2.828 2.828a1 1 0 0 1-1.414 0l-1.745-1.745a9.786 9.786 0 0 1-1.619.673V61a1 1 0 0 1-1 1Zm-3-2h2v-2.23a1 1 0 0 1 .778-.975 7.964 7.964 0 0 0 2.474-1.027 1 1 0 0 1 1.24.138l1.579 1.579 1.414-1.414-1.579-1.579a1 1 0 0 1-.138-1.24 7.964 7.964 0 0 0 1.032-2.474 1 1 0 0 1 .97-.778H62v-2h-2.23a1 1 0 0 1-.975-.778 7.964 7.964 0 0 0-1.027-2.474 1 1 0 0 1 .138-1.24l1.579-1.579-1.414-1.414-1.579 1.579a1 1 0 0 1-1.239.139 7.988 7.988 0 0 0-2.475-1.028A1 1 0 0 1 52 40.23V38h-2v2.23a1 1 0 0 1-.778.975 7.988 7.988 0 0 0-2.475 1.028 1 1 0 0 1-1.239-.139l-1.579-1.579-1.414 1.414 1.579 1.579a1 1 0 0 1 .138 1.24 7.964 7.964 0 0 0-1.027 2.474 1 1 0 0 1-.975.778H40v2h2.23a1 1 0 0 1 .975.778 7.964 7.964 0 0 0 1.027 2.474 1 1 0 0 1-.138 1.24l-1.579 1.579 1.414 1.414 1.579-1.579a1 1 0 0 1 1.24-.138 7.964 7.964 0 0 0 2.474 1.032 1 1 0 0 1 .778.97Z" fill="#8C143C" opacity="1" data-original="#000000" class=""></path><path d="M51 55a6 6 0 1 1 6-6 6.006 6.006 0 0 1-6 6Zm0-10a4 4 0 1 0 4 4 4 4 0 0 0-4-4ZM32 54H9a1 1 0 0 1-1-1v-6h2v5h22Z" fill="#8C143C" opacity="1" data-original="#000000" class=""></path></g></g></svg>