<svg xmlns="http://www.w3.org/2000/svg" version="1.1" xmlns:xlink="http://www.w3.org/1999/xlink" width="512" height="512" x="0" y="0" viewBox="0 0 66 66" style="enable-background:new 0 0 512 512" xml:space="preserve" class=""><g><path d="M63.88 7.02c-.37-2.79-2.66-5.09-5.45-5.47a6.424 6.424 0 0 0-6.66 3.62c-2.33.16-4.34 1.81-4.95 4.1l-.41 1.58c-.04.14-.01.3.08.42s.23.19.38.19h13.65c1.81 0 3.3-1.41 3.4-3.21.03-.41.01-.82-.04-1.23zm-.92 1.17a2.438 2.438 0 0 1-2.44 2.31H47.5l.26-.97c.51-1.94 2.25-3.31 4.24-3.39.91.03 1.78.31 2.52.85.09.06.18.09.28.09a.479.479 0 0 0 .28-.87 5.4 5.4 0 0 0-2.25-.95 5.442 5.442 0 0 1 5.48-2.74c2.37.32 4.31 2.27 4.63 4.64.03.33.05.68.02 1.03zM12.25 14.65c1.36 0 2.48-1.06 2.56-2.41.02-.3.01-.6-.03-.9-.27-2.05-1.95-3.73-4-4.01-2.02-.26-3.97.79-4.85 2.59a4.074 4.074 0 0 0-3.56 3.01l-.29 1.12c-.04.14-.01.3.08.42s.23.19.38.19h9.71zM3.3 13.18a3.095 3.095 0 0 1 2.89-2.3c.61.02 1.19.22 1.69.57.09.06.18.09.28.09a.479.479 0 0 0 .28-.87c-.45-.32-.95-.53-1.47-.65a3.721 3.721 0 0 1 3.67-1.72c1.62.22 2.96 1.56 3.17 3.18.03.23.04.47.03.71v.01c-.04.84-.75 1.5-1.6 1.5H3.17zM51.78 36.09l-5.66-1.75a.488.488 0 0 0-.63.46v3.56c0 .21.14.4.34.46l5.66 1.75c.05.01.09.02.14.02.1 0 .2-.03.29-.09.12-.09.2-.23.2-.39v-3.56c0-.21-.14-.4-.34-.46zm-.62 3.37L46.46 38v-2.55l4.69 1.45v2.56zM44.03 33.69l-3.04-.94a.506.506 0 0 0-.43.07c-.12.09-.2.23-.2.39v3.56c0 .21.14.4.34.46l3.04.94c.05.01.09.02.14.02.1 0 .2-.03.29-.09.12-.09.2-.23.2-.39v-3.56c0-.21-.14-.4-.34-.46zm-.62 3.37-2.08-.64v-2.55l2.08.64zM55.63 37.28l-2.16-.67a.506.506 0 0 0-.43.07c-.12.09-.2.23-.2.39v3.56c0 .21.14.4.34.46l2.16.67c.05.01.09.02.14.02.1 0 .2-.03.29-.09.12-.09.2-.23.2-.39v-3.56c0-.21-.14-.39-.34-.46zM55 40.65l-1.2-.37v-2.55l1.2.37zM19.43 34.34l-5.66 1.75c-.2.06-.34.25-.34.46v3.56c0 .15.07.3.2.39.08.06.18.09.29.09.05 0 .1-.01.14-.02l5.66-1.75c.2-.06.34-.25.34-.46V34.8c0-.15-.07-.3-.2-.39s-.29-.11-.43-.07zM19.09 38l-4.69 1.45V36.9l4.69-1.45zM24.56 32.75l-3.04.94c-.2.06-.34.25-.34.46v3.56c0 .15.07.3.2.39.08.06.18.09.29.09.05 0 .1-.01.14-.02l3.04-.94c.2-.06.34-.25.34-.46v-3.56c0-.15-.07-.3-.2-.39a.55.55 0 0 0-.43-.07zm-.34 3.67-2.08.64V34.5l2.08-.64zM12.08 36.62l-2.16.67c-.2.06-.34.25-.34.46v3.56c0 .15.07.3.2.39.08.06.18.09.29.09.05 0 .1-.01.14-.02l2.16-.67c.2-.06.34-.25.34-.46v-3.56c0-.15-.07-.3-.2-.39a.47.47 0 0 0-.43-.07zm-.33 3.66-1.2.37V38.1l1.2-.37z" fill="#8C143C" opacity="1" data-original="#000000" class=""></path><path d="M62.59 63.54h-1.81V19.91c0-.21-.14-.4-.34-.46l-27.53-8.24h-.03c-.04-.01-.07-.01-.11-.01s-.07 0-.11.01h-.03L5.11 19.45c-.2.06-.34.25-.34.46v43.63H2.96a.48.48 0 0 0 0 .96H62.6c.27 0 .48-.22.48-.48a.489.489 0 0 0-.49-.48zM5.73 39.58l2.23-.69v2.55l-2.23.69zm0-9.33 26.57-8.21v5.19L5.73 35.44zm26.56 3.67-5.13 1.59v-2.55l5.13-1.59zm.97-2.55 5.13 1.59v2.55l-5.13-1.59zm0-9.34 26.57 8.21v5.19l-26.57-8.21zm26.56 20.11-2.23-.69V38.9l2.23.69zm0-21.88v8.98l-26.57-8.21v-8.72zm-27.53-7.95v8.72L5.73 29.24v-8.98zM5.73 63.54v-20.4l2.86-.88c.2-.06.34-.25.34-.46v-3.56c0-.15-.07-.3-.2-.39a.47.47 0 0 0-.43-.07l-2.57.8v-2.13l26.57-8.21v2.13l-5.75 1.78c-.2.06-.34.25-.34.46v3.56c0 .15.07.3.2.39.08.06.18.09.29.09.05 0 .1-.01.14-.02l5.47-1.69v28.61H5.73zm27.53 0V34.93l5.47 1.69c.05.01.09.02.14.02.1 0 .2-.03.29-.09.12-.09.2-.23.2-.39V32.6c0-.21-.14-.4-.34-.46l-5.75-1.78v-2.13l26.57 8.21v2.13l-2.57-.8a.488.488 0 0 0-.63.46v3.56c0 .21.14.4.34.46l2.86.88v20.4H33.26z" fill="#8C143C" opacity="1" data-original="#000000" class=""></path></g></svg>