<svg xmlns="http://www.w3.org/2000/svg" version="1.1" xmlns:xlink="http://www.w3.org/1999/xlink" width="512" height="512" x="0" y="0" viewBox="0 0 128 128" style="enable-background:new 0 0 512 512" xml:space="preserve" class=""><g><path d="M95.83 17A56.82 56.82 0 0 1 106 26.63a1 1 0 0 0 1.54-1.28A58.49 58.49 0 0 0 75.61 5.54h-.1a58.7 58.7 0 0 0-30.43 1.07h-.15a58.51 58.51 0 0 0-28.17 19.13 1 1 0 0 0 .77 1.63 1 1 0 0 0 .78-.37 57.06 57.06 0 0 1 7.46-7.6 28.11 28.11 0 0 0 4.29 2.6 26.69 26.69 0 0 0-5.78 9.28 1 1 0 0 0 .65 1.26 1 1 0 0 0 .3 0 1 1 0 0 0 .95-.69 25.77 25.77 0 0 1 5.81-9A56 56 0 0 0 42.5 26a33.29 33.29 0 0 0-1.93 5.87 1 1 0 0 0 .76 1.13h.22a1 1 0 0 0 1-.79 32.69 32.69 0 0 1 2-5.91 87.84 87.84 0 0 0 13.94 1.23V35a1 1 0 0 0 2 0v-7.42A86 86 0 0 0 76.22 26a32.72 32.72 0 0 1 2.14 6.24 1 1 0 0 0 1 .79h.22a1 1 0 0 0 .76-1.19 34.55 34.55 0 0 0-2.1-6.25 52.07 52.07 0 0 0 10.11-3.36c2.89 3 5.33 6.34 6.37 9.63a1 1 0 0 0 1 .69 1 1 0 0 0 .3 0 1 1 0 0 0 .65-1.26c-1.1-3.45-3.52-6.86-6.41-10A20.79 20.79 0 0 0 95.83 17zm-64.34 3.43a27.39 27.39 0 0 1-4.14-2.35 56.22 56.22 0 0 1 17.86-9.42l.61.32a85.56 85.56 0 0 0-14.33 11.45zm11.85 3.67a56.11 56.11 0 0 1-9.87-2.81A89.36 89.36 0 0 1 48 10a28.14 28.14 0 0 0 3.44 1.1 77.31 77.31 0 0 0-8.1 13zm15.12 1.47a87 87 0 0 1-13.06-1.1 80.29 80.29 0 0 1 8.21-12.94 32.4 32.4 0 0 0 4.85.5zm1-15.51a29.34 29.34 0 0 1-11.35-2.23A56.57 56.57 0 0 1 72.63 7a28.31 28.31 0 0 1-13.17 3.06zm1 15.52V12a32.41 32.41 0 0 0 6.54-.82 79.51 79.51 0 0 1 8.33 13 84.42 84.42 0 0 1-14.87 1.4zm16.9-1.88a79.4 79.4 0 0 0-8.28-13.1 26.39 26.39 0 0 0 3.08-1.16.94.94 0 0 0 .29.27 90.13 90.13 0 0 1 14.37 11 51.89 51.89 0 0 1-9.46 2.99zm11.4-3.92A88.07 88.07 0 0 0 74.18 8.42c.46-.26.9-.55 1.34-.84a56.2 56.2 0 0 1 18.67 8.26 19.48 19.48 0 0 1-5.43 3.94zM62 124a58.76 58.76 0 0 0 17.24-2.59h.13a58.49 58.49 0 0 0 28.19-19.09A1 1 0 1 0 106 101a56.45 56.45 0 0 1-7.46 7.6 27.63 27.63 0 0 0-4.28-2.6 26.87 26.87 0 0 0 5.79-9.28 1 1 0 0 0-.65-1.26 1 1 0 0 0-1.26.65 25.59 25.59 0 0 1-5.8 9A56.1 56.1 0 0 0 81.82 102a33.34 33.34 0 0 0 1.94-5.87 1 1 0 0 0-2-.42 31.93 31.93 0 0 1-2 5.91 87.84 87.84 0 0 0-13.94-1.23V93a1 1 0 0 0-2 0v7.42A86 86 0 0 0 48.11 102 32.77 32.77 0 0 1 46 95.75a1 1 0 1 0-2 .42 33.79 33.79 0 0 0 2.1 6.25 51.85 51.85 0 0 0-10.1 3.36c-2.9-3-5.33-6.34-6.38-9.63a1 1 0 1 0-1.91.61c1.1 3.45 3.53 6.86 6.41 10A20.73 20.73 0 0 0 28.5 111a56.49 56.49 0 0 1-10.19-9.62 1 1 0 0 0-1.55 1.28A58.47 58.47 0 0 0 62 124zm30.83-16.41a26.79 26.79 0 0 1 4.17 2.33 56.22 56.22 0 0 1-17.86 9.42c-.2-.11-.4-.22-.61-.32a85.55 85.55 0 0 0 14.31-11.45zM81 103.9a55.62 55.62 0 0 1 9.87 2.81A88.09 88.09 0 0 1 76.31 118a29.18 29.18 0 0 0-3.43-1.09A77.41 77.41 0 0 0 81 103.9zm-15.12-1.47a87 87 0 0 1 13.07 1.1 80.13 80.13 0 0 1-8.22 12.94 32.4 32.4 0 0 0-4.85-.5zm-1 15.51a29.3 29.3 0 0 1 11.35 2.23 56.53 56.53 0 0 1-24.53.83 28.27 28.27 0 0 1 13.16-3.06zm-1-15.52V116a32.22 32.22 0 0 0-6.52.84A79.27 79.27 0 0 1 49 103.87a84.61 84.61 0 0 1 14.86-1.45zM47 104.3a79.53 79.53 0 0 0 8.27 13.1 25.57 25.57 0 0 0-3.07 1.16 1.24 1.24 0 0 0-.29-.27 90 90 0 0 1-14.38-11A52 52 0 0 1 47 104.3zm-11.4 3.92a88.54 88.54 0 0 0 14.57 11.36c-.46.26-.9.55-1.34.84a56.38 56.38 0 0 1-18.67-8.26 19.54 19.54 0 0 1 5.41-3.94zM10.61 76.28a1 1 0 0 0-1 1v6.86a1 1 0 0 0 1 1h18.94a1 1 0 0 0 1-1v-6.86a1 1 0 0 0-1-1h-3.5V51.67h3.5a1 1 0 0 0 1-1v-6.86a1 1 0 0 0-1-1H10.61a1 1 0 0 0-1 1v6.86a1 1 0 0 0 1 1h3.5v24.61zm4.5-26.61h-3.5v-4.86h16.94v4.86h-3.5a1 1 0 0 0-1 1v26.61a1 1 0 0 0 1 1h3.5v4.86H11.61v-4.86h3.5a1 1 0 0 0 1-1V50.67a1 1 0 0 0-1-1zM118.39 64c0-11.67-10.14-21.17-22.61-21.17S73.17 52.31 73.17 64s10.14 21.14 22.61 21.14 22.61-9.5 22.61-21.14zM95.78 83.14c-11.36 0-20.61-8.6-20.61-19.16s9.25-19.17 20.61-19.17 20.61 8.6 20.61 19.17-9.25 19.16-20.61 19.16z" fill="#8C143C" opacity="1" data-original="#000000"></path><path d="M95.78 48.06C89.37 48.06 84 55.35 84 64s5.41 15.91 11.82 15.91S107.6 72.6 107.6 64s-5.41-15.94-11.82-15.94zm0 29.83C90.46 77.89 86 71.52 86 64s4.5-13.92 9.82-13.92 9.78 6.35 9.78 13.92-4.49 13.89-9.82 13.89zM53 75.54c-5.17 0-8.31-2.71-8.31-3.9a1 1 0 0 0-1-1h-7.6a1 1 0 0 0-.7.29 1 1 0 0 0-.3.71c0 7.44 8 13.5 17.91 13.5 10.71 0 17.91-5.43 17.91-13.5S63.7 58.14 53 58.14c-3.47 0-5.93-.64-7.13-1.85a3 3 0 0 1 .08-4.18c1.38-1.44 4.1-2.3 7.27-2.3 4.89 0 7 2.93 7 4.42a1 1 0 0 0 1 1h7.59a1 1 0 0 0 1-1c0-7.7-7.23-13.5-16.82-13.5-9.87 0-17.91 6.06-17.91 13.5 0 2.78.45 6.81 4.27 9.64C42.47 66.18 48 67.73 53 67.73c3.32 0 5.51.53 6.5 1.57a3 3 0 0 1 .73 2.29c-.09 1.7-.92 3.95-7.23 3.95zm7.95-7.62c-1.43-1.5-4-2.19-7.95-2.19-4.64 0-9.64-1.39-12.45-3.47-2.39-1.77-3.46-4.24-3.46-8 0-6.34 7.14-11.5 15.91-11.5 8 0 14.16 4.45 14.77 10.5h-5.69c-.65-2.53-3.7-5.42-8.87-5.42-3.76 0-6.94 1.06-8.71 2.91a4.78 4.78 0 0 0-1.45 3.5 4.73 4.73 0 0 0 1.39 3.48c1.6 1.62 4.48 2.44 8.55 2.44 7.34 0 15.91 3 15.91 11.5 0 7.94-8 11.5-15.91 11.5-8.31 0-15.14-4.63-15.85-10.5h5.72c.88 2.48 4.93 4.9 10.13 4.9 5.95 0 9.06-2 9.23-5.86a4.94 4.94 0 0 0-1.28-3.79z" fill="#8C143C" opacity="1" data-original="#000000"></path></g></svg>