<svg xmlns="http://www.w3.org/2000/svg" version="1.1" xmlns:xlink="http://www.w3.org/1999/xlink" width="512" height="512" x="0" y="0" viewBox="0 0 512 512" style="enable-background:new 0 0 512 512" xml:space="preserve" class=""><g><path fill="#554E56" d="m86.073 262.249 169.21-68.798 169.3 68.834.51.406v-55.91a5.06 5.06 0 0 0-3.154-4.687l-164.75-66.985a5.057 5.057 0 0 0-3.811 0l-164.75 66.985a5.059 5.059 0 0 0-3.154 4.687v56.158z" opacity="1" data-original="#554e56" class=""></path><path fill="#685E68" d="M255.284 134.736c-.647 0-1.295.124-1.905.373l-164.75 66.985a5.058 5.058 0 0 0-3.154 4.686v54.632l169.809-69.042z" opacity="1" data-original="#685e68" class=""></path><path fill="#554E56" d="M415.673 350.667c-1.584-.644-2.842-1.885-3.517-3.485s-.686-3.367-.031-4.975a6.475 6.475 0 0 1 6.022-4.054c.839 0 1.662.162 2.447.48l3.062 1.245 1.436-.495v-27.789l-.193.168L255.283 242.8 85.82 311.702l-.346-.472v142.194h339.618v-98.142l-.703-1.333z" opacity="1" data-original="#554e56" class=""></path><path fill="#685E68" d="M255.284 453.424V243.88l-169.81 69.041v140.503z" opacity="1" data-original="#685e68" class=""></path><g fill="#FFE177"><path d="M187.932 313.327c.94 0 1.896-.178 2.822-.554l10.847-4.41a7.499 7.499 0 0 0 4.122-9.772 7.499 7.499 0 0 0-9.772-4.123l-10.847 4.41a7.499 7.499 0 0 0-4.122 9.772 7.5 7.5 0 0 0 6.95 4.677zM218.183 285.428l-1.853.753a7.5 7.5 0 0 0 5.65 13.894l1.853-.753a7.5 7.5 0 0 0 4.122-9.773 7.498 7.498 0 0 0-9.772-4.121z" fill="#FFE177" opacity="1" data-original="#ffe177"></path></g><g fill="#433F43"><path d="M421.939 202.094 394 190.734v58.037l31.093 12.642V206.78a5.058 5.058 0 0 0-3.154-4.686zM411.198 341.831a7.499 7.499 0 0 1 9.772-4.123l4.122 1.676v-26.463L394 300.28v153.144h31.093v-98.142l-9.772-3.679a7.499 7.499 0 0 1-4.123-9.772z" fill="#433F43" opacity="1" data-original="#433f43"></path></g><path fill="#FFD15B" d="m255.284 192.371-169.81 69.041v51.509l169.81-69.041 169.809 69.041v-51.509z" opacity="1" data-original="#ffd15b" class=""></path><path fill="#FFE177" d="M85.474 261.412v51.509l169.81-69.041v-51.509z" opacity="1" data-original="#ffe177"></path><path fill="#FFC344" d="m394 300.28 31.093 12.641v-51.509L394 248.771z" opacity="1" data-original="#ffc344"></path><path fill="#FFE177" d="M125.27 326.99v126.434h44.856V310.505c0-2.149-2.193-3.601-4.172-2.762l-38.856 16.485a3 3 0 0 0-1.828 2.762z" opacity="1" data-original="#ffe177"></path><path fill="#FFD15B" d="m165.954 307.743-11.369 4.823c.258.439.415.95.415 1.513v139.344h15.125V310.505c0-2.149-2.193-3.601-4.171-2.762z" opacity="1" data-original="#ffd15b" class=""></path><path fill="#918291" d="M466.497 467.424H44.07c-4.143 0-7.5-3.358-7.5-7.5s3.357-7.5 7.5-7.5h422.427c4.143 0 7.5 3.358 7.5 7.5s-3.357 7.5-7.5 7.5z" opacity="1" data-original="#918291"></path><path fill="#FFE177" d="M104.151 347.39a7.5 7.5 0 0 1-2.827-14.449l2.095-.852a7.5 7.5 0 1 1 5.648 13.895l-2.095.852a7.47 7.47 0 0 1-2.821.554z" opacity="1" data-original="#ffe177"></path><path fill="#FFD15B" d="M284.502 297.822c-.94 0-1.896-.178-2.822-.554l-1.856-.755a7.5 7.5 0 0 1-4.122-9.773 7.5 7.5 0 0 1 9.772-4.123l1.856.755a7.5 7.5 0 0 1 4.122 9.773 7.5 7.5 0 0 1-6.95 4.677zM397.725 343.856c-.94 0-1.896-.178-2.82-.554l-1.856-.754a7.5 7.5 0 0 1-4.125-9.772c1.56-3.836 5.936-5.685 9.771-4.125l1.856.754a7.503 7.503 0 0 1-2.826 14.451zm-22.274-9.056c-.94 0-1.896-.178-2.821-.554l-13.921-5.66a7.5 7.5 0 0 1 5.648-13.895l13.921 5.66a7.5 7.5 0 0 1-2.827 14.449zm-34.338-13.961c-.94 0-1.896-.178-2.82-.554l-1.856-.754a7.5 7.5 0 0 1 5.646-13.897l1.856.754a7.5 7.5 0 0 1 4.125 9.772 7.502 7.502 0 0 1-6.951 4.679zm-22.273-9.056c-.94 0-1.896-.178-2.822-.554l-13.921-5.66a7.5 7.5 0 0 1 5.65-13.895l13.921 5.66a7.499 7.499 0 0 1 4.122 9.772 7.502 7.502 0 0 1-6.95 4.677zM420.971 337.708a7.498 7.498 0 0 0-9.772 4.123 7.498 7.498 0 0 0 4.122 9.772l9.772 3.679v-15.898zM35.773 308.076H7.5c-4.143 0-7.5-3.358-7.5-7.5s3.357-7.5 7.5-7.5h28.273c4.143 0 7.5 3.358 7.5 7.5s-3.357 7.5-7.5 7.5zM65.271 197.964a7.465 7.465 0 0 1-3.743-1.006l-24.485-14.137a7.5 7.5 0 0 1 7.5-12.99l24.485 14.137a7.5 7.5 0 0 1-3.757 13.996zM145.894 117.356a7.498 7.498 0 0 1-6.502-3.751L125.255 89.12A7.5 7.5 0 0 1 128 78.875a7.499 7.499 0 0 1 10.245 2.745l14.137 24.485a7.5 7.5 0 0 1-6.488 11.251zM256 87.85a7.5 7.5 0 0 1-7.5-7.5V52.076c0-4.142 3.357-7.5 7.5-7.5s7.5 3.358 7.5 7.5V80.35a7.5 7.5 0 0 1-7.5 7.5zM366.106 117.355a7.5 7.5 0 0 1-6.488-11.251l14.137-24.485A7.497 7.497 0 0 1 384 78.874a7.5 7.5 0 0 1 2.745 10.245l-14.137 24.485a7.495 7.495 0 0 1-6.502 3.751zM446.729 197.964a7.5 7.5 0 0 1-3.757-13.996l24.485-14.136a7.5 7.5 0 0 1 7.5 12.99l-24.485 14.136a7.465 7.465 0 0 1-3.743 1.006zM504.5 308.076h-28.273c-4.143 0-7.5-3.358-7.5-7.5s3.357-7.5 7.5-7.5H504.5c4.143 0 7.5 3.358 7.5 7.5s-3.357 7.5-7.5 7.5zM265.056 274.316l-6.948-2.824a7.444 7.444 0 0 0-2.824-.55l-.5 3.141v9.515l.5 2.937 4.124 1.676a7.477 7.477 0 0 0 2.821.554 7.5 7.5 0 0 0 2.827-14.449z" opacity="1" data-original="#ffd15b" class=""></path><path fill="#FFE177" d="M255.284 270.942c-.942 0-1.899.173-2.826.55l-13.896 5.65a7.499 7.499 0 0 0-4.122 9.772 7.502 7.502 0 0 0 6.95 4.677c.94 0 1.896-.178 2.822-.554l11.071-4.501v-15.594z" opacity="1" data-original="#ffe177"></path></g></svg>