<svg xmlns="http://www.w3.org/2000/svg" version="1.1" xmlns:xlink="http://www.w3.org/1999/xlink" width="512" height="512" x="0" y="0" viewBox="0 0 128 128" style="enable-background:new 0 0 512 512" xml:space="preserve" class=""><g><path d="M112 92.12V74a2 2 0 0 0-2-2H66V51.92a26 26 0 1 0-4 0V72H18a2 2 0 0 0-2 2v18.12a18 18 0 1 0 4 0V76h42v16.12a18 18 0 1 0 4 0V76h42v16.12a18 18 0 1 0 4 0zm-60.74-48.2a12.74 12.74 0 0 1 25.48 0 21.92 21.92 0 0 1-25.48 0zm6.58-22.83A6.16 6.16 0 1 1 64 27.26a6.17 6.17 0 0 1-6.16-6.17zM42 26a22 22 0 1 1 38.41 14.64 16.8 16.8 0 0 0-9.67-12 10.16 10.16 0 1 0-13.47 0 16.8 16.8 0 0 0-9.67 12A21.91 21.91 0 0 1 42 26zm-32 95.49a8 8 0 0 1 15.95 0 13.93 13.93 0 0 1-15.95 0zM15 107a3 3 0 1 1 3 3 3 3 0 0 1-3-3zm17 3a13.91 13.91 0 0 1-2.64 8.15 12 12 0 0 0-5.87-6.82 7 7 0 1 0-11 0 12 12 0 0 0-5.87 6.82A14 14 0 1 1 32 110zm24 11.49a8 8 0 0 1 15.95 0 13.93 13.93 0 0 1-15.95 0zM61 107a3 3 0 1 1 3 3 3 3 0 0 1-3-3zm17 3a13.91 13.91 0 0 1-2.64 8.15 12 12 0 0 0-5.87-6.82 7 7 0 1 0-11 0 12 12 0 0 0-5.87 6.82A14 14 0 1 1 78 110zm24 11.49a8 8 0 0 1 15.95 0 13.93 13.93 0 0 1-15.95 0zm5-14.49a3 3 0 1 1 3 3 3 3 0 0 1-3-3zm14.36 11.15a12 12 0 0 0-5.87-6.82 7 7 0 1 0-11 0 12 12 0 0 0-5.87 6.82 14 14 0 1 1 22.71 0z" fill="#8C143C" opacity="1" data-original="#000000" class=""></path></g></svg>