<svg xmlns="http://www.w3.org/2000/svg" version="1.1" xmlns:xlink="http://www.w3.org/1999/xlink" width="512" height="512" x="0" y="0" viewBox="0 0 324.592 324.592" style="enable-background:new 0 0 512 512" xml:space="preserve" class=""><g><path d="M236.061 170.468h-75.252v-10.735h75.252c26.164 0 47.447-21.286 47.447-47.45 0-12.687-4.932-24.607-13.885-33.562-8.955-8.953-20.875-13.885-33.562-13.885h-36.338V54.1h36.338c15.555 0 30.171 6.049 41.152 17.03s17.03 25.598 17.03 41.152c0 32.085-26.101 58.186-58.182 58.186zM123.237 265.31h134.401v10.735H123.237zM84.752 276.045H69.295c-32.084 0-58.185-26.101-58.185-58.185 0-15.494 6.046-30.105 17.022-41.142 10.955-10.958 25.571-16.986 41.163-16.986h53.03v10.735h-53.03c-12.724 0-24.644 4.911-33.562 13.83-8.953 9.003-13.888 20.925-13.888 33.562 0 26.164 21.286 47.45 47.45 47.45h15.458v10.736zM44.067 54.1h117.172v10.735H44.067z" fill="#8C143C" opacity="1" data-original="#000000" class=""></path><path d="M24.824 81.501C11.136 81.501 0 70.365 0 56.677s11.136-24.824 24.824-24.824 24.824 11.136 24.824 24.824-11.135 24.824-24.824 24.824zm0-38.914c-7.768 0-14.09 6.321-14.09 14.09s6.321 14.09 14.09 14.09 14.09-6.321 14.09-14.09-6.321-14.09-14.09-14.09zM180.455 81.475c-12.252 0-22.799-9.134-24.528-21.247-.189-1.038-.27-2.257-.27-3.551 0-13.673 11.125-24.798 24.798-24.798 13.702 0 24.851 11.125 24.851 24.798 0 1.295-.081 2.513-.299 3.732-1.701 11.932-12.269 21.066-24.552 21.066zm0-38.862c-7.755 0-14.063 6.308-14.063 14.063 0 .639.024 1.245.131 1.85 1.009 7.04 6.987 12.213 13.932 12.213 6.977 0 12.976-5.174 13.956-12.032.136-.786.16-1.392.16-2.031-.001-7.754-6.333-14.063-14.116-14.063zM141.54 187.105c-12.255 0-22.799-9.134-24.528-21.244-.189-1.043-.27-2.262-.27-3.551 0-13.704 11.125-24.853 24.798-24.853 13.702 0 24.851 11.149 24.851 24.853 0 1.289-.081 2.508-.299 3.729-1.701 11.932-12.268 21.066-24.552 21.066zm0-38.914c-7.755 0-14.063 6.335-14.063 14.118 0 .639.024 1.245.131 1.853 1.009 7.037 6.987 12.208 13.932 12.208 6.977 0 12.976-5.171 13.956-12.03.136-.786.16-1.392.16-2.031 0-7.784-6.332-14.118-14.116-14.118zM104.021 292.74c-12.36 0-22.93-9.173-24.586-21.339-.186-1.006-.265-2.233-.265-3.459 0-13.702 11.149-24.853 24.851-24.853 13.673 0 24.798 11.152 24.798 24.853 0 1.227-.079 2.453-.299 3.68-1.622 11.945-12.171 21.118-24.499 21.118zm0-38.919c-7.784 0-14.116 6.337-14.116 14.121 0 .598.026 1.195.131 1.793.97 7.092 6.969 12.271 13.985 12.271 6.987 0 12.963-5.179 13.898-12.051.139-.818.165-1.415.165-2.013 0-7.784-6.308-14.121-14.063-14.121zM269.429 287.373c-9.461 0-17.159-7.7-17.159-17.161s7.697-17.161 17.159-17.161c9.464 0 17.161 7.7 17.161 17.161s-7.697 17.161-17.161 17.161zm0-23.588c-3.541 0-6.424 2.883-6.424 6.426s2.883 6.426 6.424 6.426c3.543 0 6.426-2.883 6.426-6.426s-2.883-6.426-6.426-6.426zM269.429 194.336a5.367 5.367 0 0 1-5.367-5.367v-6.555a5.367 5.367 0 0 1 10.734 0v6.555a5.367 5.367 0 0 1-5.367 5.367z" fill="#8C143C" opacity="1" data-original="#000000" class=""></path><path d="M269.429 263.785a5.366 5.366 0 0 1-5.367-5.367v-35.381a5.367 5.367 0 0 1 10.734 0v35.381a5.365 5.365 0 0 1-5.367 5.367z" fill="#8C143C" opacity="1" data-original="#000000" class=""></path><path d="M319.225 228.404h-49.796a5.367 5.367 0 0 1-5.367-5.367v-34.068a5.367 5.367 0 0 1 5.367-5.367h49.796c2 0 3.832 1.111 4.757 2.883a5.36 5.36 0 0 1-.351 5.548l-9.713 13.966 9.715 13.974a5.372 5.372 0 0 1 .349 5.551 5.372 5.372 0 0 1-4.757 2.88zm-44.428-10.735h34.16l-5.986-8.607a5.368 5.368 0 0 1 .003-6.128l5.981-8.599h-34.157v23.334z" fill="#8C143C" opacity="1" data-original="#000000" class=""></path></g></svg>