<svg xmlns="http://www.w3.org/2000/svg" version="1.1" xmlns:xlink="http://www.w3.org/1999/xlink" width="512" height="512" x="0" y="0" viewBox="0 0 100 100" style="enable-background:new 0 0 512 512" xml:space="preserve" class=""><g><path d="M97.146 71.648c-.949-2.603-3.208-3.48-5.37-4.591-4.461-2.365-7.949-5.352-10.361-8.886-.875-1.568-2.977-3.91-1.252-4.981 5.397-3.3 11.053-6.939 8.607-13.867-1.385-3.96-6.016-5.943-10.175-4.925-.204.046-.399.093-.594.139a66.766 66.766 0 0 0-.213-6.752c-1.015-10.48-5.509-16.165-12.892-20.73C53.925.437 36.725 2.634 28.611 12.287c-4.963 5.15-6.946 12.924-6.604 22.242-4.266-1.284-9.323.593-10.769 4.786-1.635 4.389.407 8.431 4.313 11.056 1.1.749 2.775 1.812 4.211 2.764.111.074.51.371.649.649.158.315.158.659-.074 1.289-2.314 4.995-6.441 8.886-11.817 11.817-2.291 1.215-4.665 2.022-5.667 4.749-1.251 2.983.988 6.675 4.091 8.218 3.06 1.792 4.996 1.823 7.133 2.912.705.612.603 1.54 1.54 2.894 3.883 5.201 9.821 2.169 15.48 4.397 6.042 2.703 9.049 6.628 18.894 6.687 9.812-.067 12.894-3.977 18.903-6.688 5.781-2.262 12.013.919 15.731-4.786.668-1.141.658-1.948 1.289-2.495 2.246-1.084 4.164-1.168 7.151-2.913 3.098-1.53 5.333-5.198 4.081-8.217zm-6.65 3.571c-4.063 2.245-6.762 2.003-8.858 3.348-1.781 1.15-.733 3.627-2.022 4.517-1.595 1.104-6.298-.074-12.373 1.929-5.009 1.66-8.209 6.418-17.234 6.418-9.043 0-12.151-4.74-17.233-6.418-6.075-2.003-10.787-.826-12.373-1.929-1.289-.89-.241-3.367-2.022-4.517-2.096-1.354-4.795-1.113-8.858-3.348-2.588-1.428-1.122-2.31-.26-2.727 14.711-7.114 17.048-18.115 17.159-18.94.13-.983.269-1.762-.816-2.773-1.048-.974-5.714-3.859-7.003-4.758-2.143-1.493-3.079-2.987-2.384-4.823.482-1.271 1.67-1.744 2.922-1.744 2.462.069 5.615 1.802 7.114 2.133.846.218 1.492-.051 1.382-1.094-.526-7.869-1.161-18.584 4.99-24.719C44.071 2.799 71.334 7.498 72.511 28.231c.408 4.684.056 9.692-.111 12.262-.126 1.084.555 1.297 1.382 1.094 2.153-.408 8.234-4.324 10.036-.39.696 1.837-.25 3.33-2.384 4.823-1.289.9-5.955 3.784-7.003 4.758-2.86 1.672 1.599 14.606 16.343 21.714.835.418 2.309 1.299-.278 2.727z" fill="#FFFFFF" opacity="1" data-original="#000000" class=""></path></g></svg>