<svg xmlns="http://www.w3.org/2000/svg" version="1.1" xmlns:xlink="http://www.w3.org/1999/xlink" width="512" height="512" x="0" y="0" viewBox="0 0 24 24" style="enable-background:new 0 0 512 512" xml:space="preserve" class=""><g><path d="M15 22.75H7c-.96 0-1.75-.79-1.75-1.75l.02-3.13c0-.33-.11-.63-.31-.83-2.05-2.05-3.01-4.89-2.62-7.8.46-3.55 2.99-6.52 6.44-7.58a9.13 9.13 0 0 1 4.35-.27c4.26.76 7.46 4.45 7.61 8.77 0 .06.02.11.04.14l1.69 2.29c.5.86.26 1.88-.5 2.4h-.02l-2.09 1.35c-.08.05-.12.12-.12.21V18c0 .96-.79 1.75-1.75 1.75h-1c-.14 0-.25.11-.25.25v1c0 .96-.79 1.75-1.75 1.75zm-3.48-20c-.31 0-.61.02-.92.05-.46.05-.91.15-1.38.29-2.84.87-5.01 3.42-5.4 6.34-.32 2.44.48 4.82 2.2 6.54.48.48.75 1.16.75 1.89l-.02 3.13c0 .13.11.25.25.25h8c.14 0 .25-.11.25-.25v-1c0-.96.79-1.75 1.75-1.75h1c.14 0 .25-.11.25-.25v-1.45c0-.61.3-1.16.81-1.48l2.07-1.33c.11-.08.15-.22.09-.33l-1.64-2.22c-.2-.27-.32-.6-.33-.97-.13-3.63-2.81-6.72-6.37-7.36-.45-.08-.9-.12-1.35-.12z" fill="#8C143C" opacity="1" data-original="#000000" class=""></path><path d="M11 14.75c-2.62 0-4.75-2.13-4.75-4.75 0-1.54.76-2.99 2-3.87V2.38c0-.33.22-.62.53-.72a9.13 9.13 0 0 1 4.35-.27c.36.06.62.37.62.74v4c1.24.88 2 2.33 2 3.87 0 2.62-2.13 4.75-4.75 4.75zM9.75 2.95v3.59c0 .27-.14.52-.38.65A3.25 3.25 0 0 0 7.75 10c0 1.79 1.46 3.25 3.25 3.25s3.25-1.46 3.25-3.25c0-1.16-.62-2.23-1.62-2.81a.752.752 0 0 1-.38-.65V2.79c-.55-.05-1.1-.05-1.65.02a6.6 6.6 0 0 0-.85.15z" fill="#8C143C" opacity="1" data-original="#000000" class=""></path><path d="M16 17.75c-.07 0-.14-.01-.22-.03l-3.57-1.07a2.733 2.733 0 0 1-1.96-2.63c0-.41.34-.76.75-.76s.75.33.75.74c0 .57.36 1.05.89 1.21l3.57 1.07a.747.747 0 0 1-.22 1.46z" fill="#8C143C" opacity="1" data-original="#000000" class=""></path></g></svg>